<svg xmlns="http://www.w3.org/2000/svg" viewBox="0 0 64 64" fill="none">
  <rect width="64" height="64" rx="14" fill="#1c1410"/>
  <path d="M12 42h40v6a6 6 0 0 1-6 6H18a6 6 0 0 1-6-6v-6z" fill="#3d2914"/>
  <ellipse cx="32" cy="40" rx="18" ry="6" fill="#f6efe2"/>
  <path d="M16 40c2-8 8-14 16-14s14 6 16 14" fill="#fffaf3"/>
  <path d="M22 28c3-2 7-2 10 0 4 2 7 2 11 0-2 5-7 9-11 9s-9-4-10-9z" fill="#9a3412"/>
  <path d="M24 27c3 1 7 1 10-1 2 3 1 6-1 7-4 1-8-2-9-6z" fill="#c2410c"/>
  <circle cx="20" cy="48" r="2" fill="#ea580c"/>
  <circle cx="32" cy="50" r="1.6" fill="#f59e0b"/>
  <circle cx="44" cy="48" r="2" fill="#ea580c"/>
</svg>
